# Blender v2.91.0 OBJ File: 'Board.blend'
# www.blender.org
mtllib Board.mtl
o Cube_Cube.001
v -0.600000 0.000000 1.040000
v -0.500000 0.105000 0.866000
v -0.600000 0.000000 -1.040000
v -0.500000 0.085000 -0.866000
v 0.600000 0.000000 1.040000
v 0.500000 0.105000 0.866000
v 0.600000 0.000000 -1.040000
v 0.500000 0.105000 -0.866000
v -1.200000 0.000000 0.000000
v -1.000000 0.100000 0.000000
v 1.200000 0.000000 0.000000
v 1.000000 0.100000 0.000000
v -0.550000 0.029302 0.953000
v -0.550000 0.019302 -0.953000
v 0.550000 0.029302 -0.953000
v 0.550000 0.029302 0.953000
v 1.100000 0.026802 0.000000
v -1.100000 0.026802 0.000000
v -0.575000 0.021250 -0.996500
v 0.575000 0.026250 -0.996500
v 0.575000 0.026250 0.996500
v 1.150000 0.025000 0.000000
v -1.150000 0.025000 0.000000
v -0.575000 0.026250 0.996500
v -0.525000 0.078750 0.909500
v -0.525000 0.063750 -0.909500
v 0.525000 0.078750 -0.909500
v 0.525000 0.078750 0.909500
v 1.050000 0.075000 0.000000
v -1.050000 0.075000 0.000000
vt 0.039790 0.250585
vt 0.276464 0.474096
vt 0.270038 0.480025
vt 0.731717 0.480895
vt 0.949613 0.250474
vt 0.731440 0.020149
vt 0.961766 0.250433
vt 0.725301 0.026316
vt 0.270215 0.020148
vt 0.747219 0.502046
vt 0.993763 0.750418
vt 0.747172 0.996542
vt 0.051943 0.250708
vt 0.276310 0.026267
vt 0.725668 0.475075
vt 0.264121 0.014029
vt 0.015484 0.250338
vt 0.258026 0.007909
vt 0.737765 0.486715
vt 0.986072 0.250350
vt 0.743814 0.492535
vt 0.737580 0.013981
vt 0.743720 0.007814
vt 0.263613 0.485954
vt 0.257188 0.491883
vt 0.003331 0.250215
vt 0.250762 0.497812
vt 0.749863 0.498356
vt 0.749859 0.001646
vt 0.998225 0.250309
vt 0.251932 0.001790
vt 0.027637 0.250461
vt 0.973919 0.250391
vt 0.251553 0.996812
vt 0.005206 0.750418
vt 0.251797 0.503108
vn -0.3721 0.9003 -0.2259
vn -0.0129 0.9013 -0.4329
vn 0.4334 0.8668 0.2466
vn 0.0000 0.8562 0.5167
vn 0.0000 -1.0000 0.0000
vn 0.4334 0.8668 -0.2466
vn -0.4334 0.8668 0.2466
vn 0.0000 1.0000 0.0000
vn -0.0619 0.9975 0.0344
vn 0.0619 0.9975 -0.0344
vn 0.0000 0.9975 0.0700
vn 0.0619 0.9975 0.0344
vn -0.0043 0.9989 0.0472
vn 0.0421 0.9989 0.0205
vn -0.3810 0.8981 -0.2198
vn 0.0000 0.8985 -0.4389
vn 0.4330 0.8661 0.2498
vn 0.4330 0.8661 -0.2498
vn -0.4330 0.8661 0.2498
vn -0.6447 0.6688 0.3703
vn 0.6447 0.6688 -0.3703
vn 0.0000 0.6605 0.7508
vn 0.6447 0.6688 0.3703
vn -0.0064 0.7013 -0.7129
vn -0.6162 0.7000 -0.3611
vn -0.4313 0.8627 -0.2640
vn -0.0170 0.8517 -0.5237
vn 0.4519 0.8546 0.2560
vn 0.4519 0.8546 -0.2560
vn -0.4519 0.8546 0.2560
vn 0.0100 1.0000 0.0000
vn -0.0200 0.9994 -0.0289
vn -0.0050 1.0000 -0.0029
vn -0.0360 0.9992 0.0182
vn 0.0360 0.9992 -0.0182
vn 0.0360 0.9992 0.0182
vn -0.0091 0.9971 -0.0752
vn -0.0360 0.9989 -0.0286
vn -0.4327 0.8653 -0.2529
vn -0.0037 0.8552 -0.5182
vn 0.4491 0.8554 0.2581
vn 0.4491 0.8554 -0.2581
vn -0.4491 0.8554 0.2581
vn -0.6526 0.6590 0.3740
vn 0.6526 0.6590 -0.3740
vn 0.6526 0.6590 0.3740
vn -0.0094 0.6578 -0.7531
vn -0.6422 0.6663 -0.3790
usemtl Material.001
s off
f 30/1/1 4/2/1 26/3/1
f 4/2/2 27/4/2 26/3/2
f 12/5/3 28/6/3 29/7/3
f 6/8/4 25/9/4 28/6/4
f 5/10/5 1/11/5 9/12/5
f 27/4/6 12/5/6 29/7/6
f 25/9/7 10/13/7 30/1/7
f 2/14/8 6/8/8 8/15/8
f 13/16/9 23/17/9 24/18/9
f 15/19/10 22/20/10 20/21/10
f 16/22/11 24/18/11 21/23/11
f 22/20/12 16/22/12 21/23/12
f 14/24/13 20/21/13 19/25/13
f 23/17/14 14/24/14 19/25/14
f 9/26/15 19/25/15 3/27/15
f 19/25/16 7/28/16 3/27/16
f 22/20/17 5/29/17 11/30/17
f 21/23/4 1/31/4 5/29/4
f 7/28/18 22/20/18 11/30/18
f 1/31/19 23/17/19 9/26/19
f 13/16/20 30/1/20 18/32/20
f 15/19/21 29/7/21 17/33/21
f 16/22/22 25/9/22 13/16/22
f 29/7/23 16/22/23 17/33/23
f 26/3/24 15/19/24 14/24/24
f 18/32/25 26/3/25 14/24/25
f 30/1/26 10/13/26 4/2/26
f 4/2/27 8/15/27 27/4/27
f 12/5/28 6/8/28 28/6/28
f 6/8/4 2/14/4 25/9/4
f 9/12/5 3/34/5 7/35/5
f 7/35/5 11/36/5 9/12/5
f 11/36/5 5/10/5 9/12/5
f 27/4/29 8/15/29 12/5/29
f 25/9/30 2/14/30 10/13/30
f 12/5/31 8/15/31 6/8/31
f 8/15/32 4/2/32 10/13/32
f 2/14/33 8/15/33 10/13/33
f 13/16/34 18/32/34 23/17/34
f 15/19/35 17/33/35 22/20/35
f 16/22/11 13/16/11 24/18/11
f 22/20/36 17/33/36 16/22/36
f 14/24/37 15/19/37 20/21/37
f 23/17/38 18/32/38 14/24/38
f 9/26/39 23/17/39 19/25/39
f 19/25/40 20/21/40 7/28/40
f 22/20/41 21/23/41 5/29/41
f 21/23/4 24/18/4 1/31/4
f 7/28/42 20/21/42 22/20/42
f 1/31/43 24/18/43 23/17/43
f 13/16/44 25/9/44 30/1/44
f 15/19/45 27/4/45 29/7/45
f 16/22/22 28/6/22 25/9/22
f 29/7/46 28/6/46 16/22/46
f 26/3/47 27/4/47 15/19/47
f 18/32/48 30/1/48 26/3/48
