<?xml version="1.0" encoding="UTF-8" standalone="no"?>
<svg
   xmlns:dc="http://purl.org/dc/elements/1.1/"
   xmlns:cc="http://creativecommons.org/ns#"
   xmlns:rdf="http://www.w3.org/1999/02/22-rdf-syntax-ns#"
   xmlns:svg="http://www.w3.org/2000/svg"
   xmlns="http://www.w3.org/2000/svg"
   xmlns:sodipodi="http://sodipodi.sourceforge.net/DTD/sodipodi-0.dtd"
   xmlns:inkscape="http://www.inkscape.org/namespaces/inkscape"
   width="297mm"
   height="210mm"
   viewBox="0 0 297 210"
   version="1.1"
   id="svg4749"
   inkscape:version="1.0.1 (3bc2e813f5, 2020-09-07)"
   sodipodi:docname="Distancia azul.svg">
  <defs
     id="defs4743" />
  <sodipodi:namedview
     id="base"
     pagecolor="#ffffff"
     bordercolor="#666666"
     borderopacity="1.0"
     inkscape:pageopacity="0.0"
     inkscape:pageshadow="2"
     inkscape:zoom="0.98994949"
     inkscape:cx="511.35697"
     inkscape:cy="488.94224"
     inkscape:document-units="mm"
     inkscape:current-layer="layer1"
     showgrid="false"
     inkscape:pagecheckerboard="false"
     inkscape:window-width="1920"
     inkscape:window-height="1057"
     inkscape:window-x="-8"
     inkscape:window-y="1072"
     inkscape:window-maximized="1"
     inkscape:document-rotation="0" />
  <metadata
     id="metadata4746">
    <rdf:RDF>
      <cc:Work
         rdf:about="">
        <dc:format>image/svg+xml</dc:format>
        <dc:type
           rdf:resource="http://purl.org/dc/dcmitype/StillImage" />
        <dc:title />
      </cc:Work>
    </rdf:RDF>
  </metadata>
  <g
     inkscape:label="Layer 1"
     inkscape:groupmode="layer"
     id="layer1"
     transform="translate(0,-87)">
    <path
       sodipodi:type="star"
       style="fill:#bbd3e9;fill-opacity:1;stroke:#000000;stroke-width:0.5;stroke-miterlimit:4;stroke-dasharray:none;stroke-opacity:1;paint-order:markers fill stroke"
       id="path5294"
       sodipodi:sides="6"
       sodipodi:cx="57.886362"
       sodipodi:cy="164.57863"
       sodipodi:r1="19.933542"
       sodipodi:r2="17.262953"
       sodipodi:arg1="0.52359878"
       sodipodi:arg2="1.0471976"
       inkscape:flatsided="true"
       inkscape:rounded="-3.46945e-018"
       inkscape:randomized="0"
       d="m 75.149314,174.5454 -17.262954,9.96677 -17.262954,-9.96677 0,-19.93354 17.262954,-9.96677 17.262954,9.96677 z"
       inkscape:export-xdpi="96"
       inkscape:export-ydpi="96" />
    <path
       d="m 109.67522,174.5454 -17.26295,9.96677 -17.262954,-9.96677 0,-19.93354 17.262954,-9.96677 17.26295,9.96677 z"
       inkscape:randomized="0"
       inkscape:rounded="-3.46945e-018"
       inkscape:flatsided="true"
       sodipodi:arg2="1.0471976"
       sodipodi:arg1="0.52359878"
       sodipodi:r2="17.262953"
       sodipodi:r1="19.933542"
       sodipodi:cy="164.57863"
       sodipodi:cx="92.41227"
       sodipodi:sides="6"
       id="path5296"
       style="fill:#bbd3e9;fill-opacity:1;stroke:#000000;stroke-width:0.5;stroke-miterlimit:4;stroke-dasharray:none;stroke-opacity:1;paint-order:markers fill stroke"
       sodipodi:type="star"
       inkscape:export-xdpi="96"
       inkscape:export-ydpi="96" />
    <path
       sodipodi:type="star"
       style="fill:#6a9ecf;fill-opacity:1;stroke:#000000;stroke-width:0.5;stroke-miterlimit:4;stroke-dasharray:none;stroke-opacity:1;paint-order:markers fill stroke"
       id="path5298"
       sodipodi:sides="6"
       sodipodi:cx="126.93817"
       sodipodi:cy="164.57863"
       sodipodi:r1="19.933542"
       sodipodi:r2="17.262953"
       sodipodi:arg1="0.52359878"
       sodipodi:arg2="1.0471976"
       inkscape:flatsided="true"
       inkscape:rounded="-3.46945e-018"
       inkscape:randomized="0"
       d="m 144.20113,174.5454 -17.26296,9.96677 -17.26295,-9.96677 0,-19.93354 17.26295,-9.96677 17.26296,9.96677 z"
       inkscape:export-xdpi="96"
       inkscape:export-ydpi="96" />
    <path
       d="m 92.412269,204.44571 -17.262954,9.96678 -17.262954,-9.96678 0,-19.93354 17.262954,-9.96677 17.262954,9.96677 z"
       inkscape:randomized="0"
       inkscape:rounded="-3.46945e-018"
       inkscape:flatsided="true"
       sodipodi:arg2="1.0471976"
       sodipodi:arg1="0.52359878"
       sodipodi:r2="17.262953"
       sodipodi:r1="19.933542"
       sodipodi:cy="194.47895"
       sodipodi:cx="75.149317"
       sodipodi:sides="6"
       id="path5300"
       style="fill:#bbd3e9;fill-opacity:1;stroke:#000000;stroke-width:0.5;stroke-miterlimit:4;stroke-dasharray:none;stroke-opacity:1;paint-order:markers fill stroke"
       sodipodi:type="star"
       inkscape:export-xdpi="96"
       inkscape:export-ydpi="96" />
    <path
       sodipodi:type="star"
       style="fill:#bbd3e9;fill-opacity:1;stroke:#000000;stroke-width:0.5;stroke-miterlimit:4;stroke-dasharray:none;stroke-opacity:1;paint-order:markers fill stroke"
       id="path5302"
       sodipodi:sides="6"
       sodipodi:cx="109.67522"
       sodipodi:cy="194.47895"
       sodipodi:r1="19.933542"
       sodipodi:r2="17.262953"
       sodipodi:arg1="0.52359878"
       sodipodi:arg2="1.0471976"
       inkscape:flatsided="true"
       inkscape:rounded="-3.46945e-018"
       inkscape:randomized="0"
       d="m 126.93817,204.44571 -17.26295,9.96678 -17.262957,-9.96678 0,-19.93354 17.262957,-9.96677 17.26295,9.96677 z"
       inkscape:export-xdpi="96"
       inkscape:export-ydpi="96" />
    <path
       d="m 161.46408,204.44571 -17.26295,9.96678 -17.26296,-9.96678 0,-19.93354 17.26296,-9.96677 17.26295,9.96677 z"
       inkscape:randomized="0"
       inkscape:rounded="-3.46945e-018"
       inkscape:flatsided="true"
       sodipodi:arg2="1.0471976"
       sodipodi:arg1="0.52359878"
       sodipodi:r2="17.262953"
       sodipodi:r1="19.933542"
       sodipodi:cy="194.47895"
       sodipodi:cx="144.20113"
       sodipodi:sides="6"
       id="path5304"
       style="fill:#6a9ecf;fill-opacity:1;stroke:#000000;stroke-width:0.5;stroke-miterlimit:4;stroke-dasharray:none;stroke-opacity:1;paint-order:markers fill stroke"
       sodipodi:type="star"
       inkscape:export-xdpi="96"
       inkscape:export-ydpi="96" />
    <path
       sodipodi:type="star"
       style="fill:#bbd3e9;fill-opacity:1;stroke:#000000;stroke-width:0.5;stroke-miterlimit:4;stroke-dasharray:none;stroke-opacity:1;paint-order:markers fill stroke"
       id="path5306"
       sodipodi:sides="6"
       sodipodi:cx="57.88637"
       sodipodi:cy="224.37926"
       sodipodi:r1="19.933542"
       sodipodi:r2="17.262953"
       sodipodi:arg1="0.52359878"
       sodipodi:arg2="1.0471976"
       inkscape:flatsided="true"
       inkscape:rounded="-3.46945e-018"
       inkscape:randomized="0"
       d="m 75.149326,234.34603 -17.262954,9.96677 -17.262954,-9.96677 0,-19.93354 17.262954,-9.96678 17.262954,9.96678 z"
       inkscape:export-xdpi="96"
       inkscape:export-ydpi="96" />
    <path
       d="m 109.67522,234.34603 -17.26295,9.96677 -17.262954,-9.96677 0,-19.93354 17.262954,-9.96678 17.26295,9.96678 z"
       inkscape:randomized="0"
       inkscape:rounded="-3.46945e-018"
       inkscape:flatsided="true"
       sodipodi:arg2="1.0471976"
       sodipodi:arg1="0.52359878"
       sodipodi:r2="17.262953"
       sodipodi:r1="19.933542"
       sodipodi:cy="224.37926"
       sodipodi:cx="92.412271"
       sodipodi:sides="6"
       id="path5308"
       style="fill:#bbd3e9;fill-opacity:1;stroke:#000000;stroke-width:0.5;stroke-miterlimit:4;stroke-dasharray:none;stroke-opacity:1;paint-order:markers fill stroke"
       sodipodi:type="star"
       inkscape:export-xdpi="96"
       inkscape:export-ydpi="96" />
    <path
       sodipodi:type="star"
       style="fill:#6a9ecf;fill-opacity:1;stroke:#000000;stroke-width:0.5;stroke-miterlimit:4;stroke-dasharray:none;stroke-opacity:1;paint-order:markers fill stroke"
       id="path5310"
       sodipodi:sides="6"
       sodipodi:cx="126.93819"
       sodipodi:cy="224.37926"
       sodipodi:r1="19.933542"
       sodipodi:r2="17.262953"
       sodipodi:arg1="0.52359878"
       sodipodi:arg2="1.0471976"
       inkscape:flatsided="true"
       inkscape:rounded="-3.46945e-018"
       inkscape:randomized="0"
       d="m 144.20114,234.34603 -17.26295,9.96677 -17.26296,-9.96677 0,-19.93354 17.26296,-9.96678 17.26295,9.96678 z"
       inkscape:export-xdpi="96"
       inkscape:export-ydpi="96" />
    <path
       sodipodi:type="star"
       style="fill:#9b9b9b;fill-opacity:1;stroke:#000000;stroke-width:0.5;stroke-miterlimit:4;stroke-dasharray:none;stroke-opacity:1;paint-order:markers fill stroke"
       id="path5312"
       sodipodi:sides="6"
       sodipodi:cx="40.623415"
       sodipodi:cy="194.47895"
       sodipodi:r1="19.933542"
       sodipodi:r2="17.262953"
       sodipodi:arg1="0.52359878"
       sodipodi:arg2="1.0471976"
       inkscape:flatsided="true"
       inkscape:rounded="-3.46945e-018"
       inkscape:randomized="0"
       d="m 57.886371,204.44571 -17.262954,9.96678 -17.262954,-9.96678 0,-19.93354 17.262954,-9.96677 17.262954,9.96677 z"
       inkscape:export-xdpi="96"
       inkscape:export-ydpi="96" />
    <path
       d="m 178.72703,174.5454 -17.26295,9.96677 -17.26295,-9.96677 0,-19.93354 17.26295,-9.96677 17.26295,9.96677 z"
       inkscape:randomized="0"
       inkscape:rounded="-3.46945e-018"
       inkscape:flatsided="true"
       sodipodi:arg2="1.0471976"
       sodipodi:arg1="0.52359878"
       sodipodi:r2="17.262953"
       sodipodi:r1="19.933542"
       sodipodi:cy="164.57863"
       sodipodi:cx="161.46408"
       sodipodi:sides="6"
       id="path5314"
       style="fill:#32689a;fill-opacity:1;stroke:#000000;stroke-width:0.5;stroke-miterlimit:4;stroke-dasharray:none;stroke-opacity:1;paint-order:markers fill stroke"
       sodipodi:type="star"
       inkscape:export-xdpi="96"
       inkscape:export-ydpi="96" />
    <path
       sodipodi:type="star"
       style="fill:#32689a;fill-opacity:1;stroke:#000000;stroke-width:0.5;stroke-miterlimit:4;stroke-dasharray:none;stroke-opacity:1;paint-order:markers fill stroke"
       id="path5316"
       sodipodi:sides="6"
       sodipodi:cx="178.72704"
       sodipodi:cy="194.47895"
       sodipodi:r1="19.933542"
       sodipodi:r2="17.262953"
       sodipodi:arg1="0.52359878"
       sodipodi:arg2="1.0471976"
       inkscape:flatsided="true"
       inkscape:rounded="-3.46945e-018"
       inkscape:randomized="0"
       d="m 195.98999,204.44571 -17.26295,9.96678 -17.26296,-9.96678 0,-19.93354 17.26296,-9.96677 17.26295,9.96677 z"
       inkscape:export-xdpi="96"
       inkscape:export-ydpi="96" />
    <path
       d="m 178.72705,234.34603 -17.26295,9.96677 -17.26296,-9.96677 0,-19.93354 17.26296,-9.96678 17.26295,9.96678 z"
       inkscape:randomized="0"
       inkscape:rounded="-3.46945e-018"
       inkscape:flatsided="true"
       sodipodi:arg2="1.0471976"
       sodipodi:arg1="0.52359878"
       sodipodi:r2="17.262953"
       sodipodi:r1="19.933542"
       sodipodi:cy="224.37926"
       sodipodi:cx="161.4641"
       sodipodi:sides="6"
       id="path5318"
       style="fill:#32689a;fill-opacity:1;stroke:#000000;stroke-width:0.5;stroke-miterlimit:4;stroke-dasharray:none;stroke-opacity:1;paint-order:markers fill stroke"
       sodipodi:type="star"
       inkscape:export-xdpi="96"
       inkscape:export-ydpi="96" />
    <g
       id="g4941"
       transform="matrix(2.3373128,0,0,2.3373128,110.65869,-227.43486)"
       style="opacity:0.995"
       inkscape:export-xdpi="96"
       inkscape:export-ydpi="96">
      <path
         d="m -24.477931,179.66117 c -4.42e-4,-4.6e-4 -9.16e-4,-0.002 -0.0014,-0.002 l -1.320192,-1.9479 c -0.104239,-0.15379 -0.315591,-0.18845 -0.463539,-0.0775 l -0.273743,0.20526 c -0.710059,-0.75858 -1.757438,-1.08009 -2.806507,-0.84287 -0.341208,0.0772 -0.660519,0.21685 -0.945253,0.40546 v -0.0232 c 0,-0.68334 -0.289722,-1.33989 -0.794939,-1.80132 -1.1774,-1.07544 -2.996301,-0.64623 -3.824886,0.72376 -0.877451,1.45072 -0.142874,2.77117 -0.127235,2.86577 0.231135,0.59745 0.08885,1.27733 -0.362258,1.73207 l -0.01242,0.0125 c -0.105845,0.10668 -0.124613,0.27222 -0.0454,0.39988 0.07905,0.12731 0.235362,0.18446 0.37849,0.13678 1.265494,-0.42177 2.022474,-1.72624 1.76082,-3.03434 l -0.0097,-0.0488 c -0.102211,-0.51105 0.205096,-1.02456 0.714878,-1.19448 0.377307,-0.12579 0.786485,-0.0292 1.067753,0.2521 l 0.588575,0.58858 c -0.25337,0.31677 -0.44122,0.68723 -0.540809,1.09006 -0.248636,1.00537 0.02409,2.04116 0.729419,2.77083 0.264698,0.27383 0.426848,0.63127 0.467343,1.02168 -0.784372,0.41789 -1.288151,1.26879 -1.288151,2.18539 0,0.10433 0.05013,0.2023 0.134759,0.26334 0.17018,0.12268 0.336642,0.0237 0.370035,0.0188 0.961739,-0.32058 2.033211,-0.23629 3.017015,0.23738 0.635155,0.30571 1.288319,0.45441 1.997026,0.45441 0.179312,0 0.324638,-0.14539 0.324638,-0.32462 0,-0.93825 -0.36936,-1.8457 -1.013308,-2.48966 l -0.281945,-0.28202 c 0.03128,-0.48678 0.281776,-0.8679 0.50192,-1.11306 l 0.273913,0.20542 c 0.148877,0.11168 0.359975,0.0752 0.463539,-0.0775 l 1.320191,-1.9479 c 0.07389,-0.1089 0.07431,-0.25228 0.0014,-0.36192 z m -1.667995,-1.30396 0.785639,1.15914 h -2.331217 c 0.201377,-0.15099 1.323912,-0.99294 1.545578,-1.15914 z m -2.194852,1.48378 c 0,0.17897 -0.145665,0.32464 -0.324638,0.32464 -0.178973,0 -0.324638,-0.14567 -0.324638,-0.32464 0,-0.17898 0.145665,-0.32464 0.324638,-0.32464 0.178973,0 0.324638,0.14566 0.324638,0.32464 z m -2.743609,-2.87812 c -0.456352,-0.45626 -1.120084,-0.61292 -1.732245,-0.40892 -0.819709,0.27324 -1.312499,1.10638 -1.146122,1.93794 l 0.0097,0.0488 c 0.1143,0.57125 -0.02883,1.14155 -0.354649,1.58251 0.06493,-0.39327 0.02714,-0.80456 -0.12233,-1.19109 -0.01623,-0.0937 -0.620531,-1.14215 0.0771,-2.29554 0.616726,-1.01957 1.957885,-1.37836 2.831531,-0.58037 0.297753,0.27205 0.493551,0.63633 0.559155,1.02894 z m 4.671143,8.42621 c -0.478417,-0.0397 -0.929612,-0.16376 -1.37041,-0.37604 -1.001302,-0.48214 -2.086218,-0.61352 -3.098004,-0.38213 0.128756,-0.50877 0.468949,-0.95624 0.925724,-1.18459 l 0.06857,-0.0342 h 2.386 l 0.285241,0.28525 c 0.438345,0.43825 0.726461,1.05279 0.802885,1.69174 z m -1.25797,-2.62627 h -1.988911 c -0.06594,-0.5102 -0.287186,-0.97831 -0.639384,-1.3426 -0.548925,-0.56786 -0.76053,-1.37674 -0.565917,-2.16374 0.198925,-0.80475 0.85268,-1.44353 1.665373,-1.62733 0.795109,-0.17982 1.587934,0.0498 2.139479,0.60244 l -1.065386,0.79909 c -0.154541,-0.10323 -0.340024,-0.1636 -0.539456,-0.1636 -0.537004,0 -0.973912,0.43692 -0.973912,0.97392 0,0.53708 0.436908,0.97391 0.973912,0.97391 0.199432,0 0.384915,-0.0603 0.539456,-0.1635 l 1.06809,0.80111 c -0.337825,0.39134 -0.549769,0.84583 -0.613344,1.3103 z m 1.525288,-1.43805 -1.545578,-1.15913 h 2.331217 z m 0,0"
         id="path850-1"
         style="stroke-width:0.0216425"
         inkscape:export-xdpi="96"
         inkscape:export-ydpi="96" />
      <path
         style="fill:#ffffff;fill-opacity:0.996078;stroke:#ffffff;stroke-width:0.183904;stroke-linecap:round;stroke-linejoin:round;stroke-miterlimit:2.5;stroke-dasharray:none;stroke-opacity:0.996078;paint-order:fill markers stroke"
         d="m -34.264715,179.62544 c -0.01739,-0.24223 -0.08046,-0.51442 -0.204457,-0.88234 -0.153549,-0.45562 -0.179309,-0.585 -0.179309,-0.90063 0,-0.76894 0.351764,-1.44677 0.957967,-1.84595 0.415672,-0.27371 0.675474,-0.34809 1.137682,-0.32571 0.325941,0.0158 0.416557,0.0388 0.654707,0.16594 0.406271,0.21698 0.723074,0.60244 0.86158,1.04831 0.03042,0.0979 0.01855,0.094 -0.159919,-0.0522 -0.741561,-0.60765 -1.882742,-0.4661 -2.472136,0.30664 -0.238446,0.31263 -0.335003,0.63318 -0.320171,1.06289 0.03605,1.04443 0.02494,1.18539 -0.117321,1.48874 l -0.133474,0.28462 z"
         id="path904-8" />
      <path
         style="fill:#ffffff;fill-opacity:0.996078;stroke:#ffffff;stroke-width:0.183904;stroke-linecap:round;stroke-linejoin:round;stroke-miterlimit:2.5;stroke-dasharray:none;stroke-opacity:0.996078;paint-order:fill markers stroke"
         d="m -27.553471,179.45626 c 0.112358,-0.10465 1.310945,-0.99354 1.367333,-1.01405 0.04557,-0.0166 0.345123,0.386 0.709406,0.95335 l 0.07732,0.12041 h -1.109087 c -0.938759,0 -1.099239,-0.009 -1.044969,-0.0597 z"
         id="path906-6" />
      <path
         style="fill:#ffffff;fill-opacity:0.996078;stroke:#ffffff;stroke-width:0.183904;stroke-linecap:round;stroke-linejoin:round;stroke-miterlimit:2.5;stroke-dasharray:none;stroke-opacity:0.996078;paint-order:fill markers stroke"
         d="m -26.898668,180.73105 -0.716355,-0.53639 0.555435,-0.0123 c 0.305488,-0.007 0.801891,-0.007 1.103116,0 l 0.547681,0.0123 -0.361589,0.53456 c -0.198873,0.294 -0.372915,0.53537 -0.386761,0.53638 -0.01384,7.6e-4 -0.347533,-0.23953 -0.741527,-0.53455 z"
         id="path908-9" />
      <path
         style="fill:#ffffff;fill-opacity:0.996078;stroke:#ffffff;stroke-width:0.183904;stroke-linecap:round;stroke-linejoin:round;stroke-miterlimit:2.5;stroke-dasharray:none;stroke-opacity:0.996078;paint-order:fill markers stroke"
         d="m -27.051489,185.25397 c -0.168579,-0.0444 -0.473197,-0.15432 -0.676932,-0.24416 -0.530375,-0.23385 -0.933656,-0.36427 -1.353939,-0.43789 -0.420766,-0.0737 -1.089823,-0.0833 -1.469368,-0.0211 -0.143013,0.0234 -0.268186,0.0344 -0.278161,0.0245 -0.01,-0.01 0.03138,-0.12629 0.0919,-0.25848 0.129904,-0.28375 0.412949,-0.60594 0.684736,-0.77945 l 0.194667,-0.12426 h 1.168648 1.168648 l 0.264638,0.28289 c 0.320196,0.34229 0.54627,0.71734 0.689384,1.14368 0.147254,0.43866 0.142844,0.50065 -0.03541,0.49763 -0.07827,-0.002 -0.280235,-0.0388 -0.448814,-0.0832 z"
         id="path910-5" />
      <path
         style="fill:#ffffff;fill-opacity:0.996078;stroke:#ffffff;stroke-width:0.183904;stroke-linecap:round;stroke-linejoin:round;stroke-miterlimit:2.5;stroke-dasharray:none;stroke-opacity:0.996078;paint-order:fill markers stroke"
         d="m -28.808831,180.11876 c -0.128814,-0.0654 -0.196952,-0.21365 -0.160635,-0.34943 0.02563,-0.0958 0.06781,-0.15182 0.151264,-0.20073 0.09303,-0.0545 0.234128,-0.049 0.327609,0.0129 0.07278,0.0482 0.143036,0.17574 0.143036,0.25974 0,0.084 -0.07025,0.21156 -0.143036,0.25972 -0.08657,0.0573 -0.225228,0.0651 -0.318238,0.0178 z"
         id="path912-4" />
      <path
         style="fill:#989898;fill-opacity:0.976471;stroke:#989898;stroke-width:0.944882;stroke-linecap:round;stroke-miterlimit:4;stroke-dasharray:none;stroke-opacity:0.972549;paint-order:fill markers stroke"
         d="m -112.19031,689.80908 c -0.2063,-1.27124 -0.9916,-2.78045 -2.20081,-4.22954 -1.618,-1.93897 -2.3184,-3.66988 -2.32672,-5.75 -0.0105,-2.63846 0.62002,-4.18197 2.46023,-6.02218 1.84021,-1.84021 3.38372,-2.47078 6.02219,-2.46023 1.82826,0.007 3.77403,0.68682 5.10522,1.78288 l 0.60522,0.49833 -1.90103,1.43083 c -1.69502,1.27577 -1.96097,1.39875 -2.45417,1.1348 -0.76737,-0.41068 -2.87397,-0.16442 -3.68636,0.43093 -2.08252,1.52616 -1.98772,4.81364 0.18059,6.26216 0.92795,0.61991 2.68562,0.76699 3.56184,0.29805 0.42888,-0.22953 0.77815,-0.059 2.35856,1.15148 1.85427,1.42025 2.07876,1.70023 1.60037,1.99589 -0.40577,0.25078 -1.43801,2.43776 -1.6276,3.44837 l -0.17329,0.92369 h -3.68946 -3.68947 z"
         id="path4932"
         transform="scale(0.26458333)" />
    </g>
  </g>
</svg>
