<svg height="511pt" viewBox="0 0 511 511.99883" width="511pt" xmlns="http://www.w3.org/2000/svg"><path d="m509.988281 216.6875c-.019531-.035156-.042969-.074219-.066406-.105469l-61-90.003906c-4.816406-7.105469-14.582031-8.707031-21.417969-3.582031l-12.648437 9.484375c-32.808594-35.050781-81.203125-49.90625-129.675781-38.945313-15.765626 3.566406-30.519532 10.019532-43.675782 18.734375v-1.074219c0-31.574218-13.386718-61.910156-36.730468-83.230468-54.402344-49.691406-138.445313-29.859375-176.730469 33.441406-40.542969 67.03125-6.601563 128.042969-5.878907 132.414062 10.679688 27.605469 4.105469 59.019532-16.738281 80.03125l-.574219.578126c-4.8906245 4.929687-5.757812 12.578124-2.097656 18.476562 3.652344 5.882812 10.875 8.523438 17.488282 6.320312 58.472656-19.488281 93.449218-79.761718 81.359374-140.203124l-.449218-2.253907c-4.722656-23.613281 9.476562-47.339843 33.03125-55.191406 17.433594-5.8125 36.339844-1.347656 49.335937 11.648437l27.195313 27.195313c-11.707032 14.636719-20.386719 31.753906-24.988282 50.367187-11.488281 46.453126 1.113282 94.3125 33.703126 128.027344 12.230468 12.652344 19.722656 29.167969 21.59375 47.207032-36.242188 19.308593-59.519532 58.625-59.519532 100.976562 0 4.820312 2.316406 9.347656 6.226563 12.167969 7.863281 5.667969 15.554687 1.097656 17.097656.867187 44.4375-14.8125 93.945313-10.917968 139.402344 10.96875 29.347656 14.125 59.527343 20.996094 92.273437 20.996094 8.285156 0 15-6.71875 15-15 0-43.351562-17.066406-85.28125-46.820312-115.035156l-13.027344-13.03125c1.445312-22.492188 13.019531-40.101563 23.191406-51.429688l12.65625 9.492188c6.878906 5.160156 16.632813 3.476562 21.417969-3.582032l61-90.003906c3.414063-5.03125 3.433594-11.65625.066406-16.722656zm-77.070312-60.25 36.300781 53.558594h-107.714844c9.304688-6.976563 61.171875-45.878906 71.414063-53.558594zm-101.414063 68.558594c0 8.269531-6.730468 15-15 15-8.269531 0-15-6.730469-15-15 0-8.269532 6.730469-15 15-15 8.269532 0 15 6.730468 15 15zm-126.769531-132.984375c-21.085937-21.082031-51.753906-28.320313-80.039063-18.894531-37.875 12.625-60.644531 51.121093-52.957031 89.542968l.449219 2.253906c5.28125 26.394532-1.332031 52.746094-16.386719 73.121094 3-18.171875 1.253907-37.175781-5.652343-55.035156-.75-4.332031-28.671876-52.773438 3.5625-106.066406 28.496093-47.109375 90.464843-63.6875 130.832031-26.816406 13.757812 12.570312 22.804687 29.402343 25.835937 47.542968zm215.832031 389.335937c-22.105468-1.835937-42.953125-7.566406-63.320312-17.375-46.265625-22.277344-96.394532-28.347656-143.144532-17.65625 5.949219-23.507812 21.667969-44.183594 42.773438-54.734375l3.167969-1.582031h110.246093l13.179688 13.179688c20.253906 20.25 33.566406 48.644531 37.097656 78.167968zm-58.125-121.347656h-91.898437c-3.046875-23.574219-13.269531-45.203125-29.542969-62.035156-25.363281-26.238282-35.140625-63.613282-26.148438-99.976563 9.191407-37.183593 39.398438-66.699219 76.949219-75.191406 36.738281-8.308594 73.371094 2.300781 98.855469 27.835937l-49.226562 36.921876c-7.140626-4.769532-15.710938-7.558594-24.925782-7.558594-24.8125 0-45 20.1875-45 45 0 24.816406 20.1875 45 45 45 9.214844 0 17.785156-2.785156 24.925782-7.554688l49.351562 37.015625c-15.609375 18.082031-25.402344 39.082031-28.339844 60.542969zm70.476563-66.445312-71.414063-53.558594h107.714844zm0 0"/></svg>