# Blender v2.91.0 OBJ File: 'Base Model.blend'
# www.blender.org
mtllib 0 - Boots.mtl
o Cube
v 0.403000 0.100000 0.250000
v 0.403000 0.000000 0.250000
v -0.403000 0.100000 0.250000
v -0.403000 0.000000 0.250000
v 0.403000 0.100000 -0.250000
v 0.403000 0.000000 -0.250000
v -0.403000 0.100000 -0.250000
v -0.403000 0.000000 -0.250000
v -0.000000 0.000000 -0.500000
v 0.000000 0.100000 0.500000
v -0.000000 0.100000 -0.500000
v 0.000000 0.000000 0.500000
vt 0.299152 0.056942
vt 0.009185 0.273068
vt 0.260258 0.003234
vt 0.301267 0.491225
vt 0.746988 0.546650
vt 0.249955 0.547864
vt 0.697852 0.060637
vt 0.751567 0.002020
vt 0.696857 0.491546
vt 0.994245 0.274388
vt 0.891932 0.275564
vt 0.104077 0.273106
vt 0.087339 0.769731
vt 0.293086 0.550066
vt 0.912113 0.770180
vt 0.703212 0.548852
vt 0.702054 0.996993
vt 0.296946 0.996362
vn -1.0000 0.0000 0.0000
vn 0.5272 0.0000 -0.8498
vn -0.5272 0.0000 0.8498
vn 1.0000 0.0000 -0.0000
vn 0.5272 0.0000 0.8498
vn -0.5272 0.0000 -0.8498
vn 0.0000 1.0000 0.0000
vn 0.0000 -1.0000 0.0000
usemtl Material
s off
f 3/1/1 8/2/1 4/3/1
f 11/4/2 6/5/2 9/6/2
f 10/7/3 4/3/3 12/8/3
f 5/9/4 2/10/4 6/5/4
f 1/11/5 12/8/5 2/10/5
f 7/12/6 9/6/6 8/2/6
f 7/12/7 3/1/7 1/11/7
f 4/13/8 8/14/8 6/15/8
f 3/1/1 7/12/1 8/2/1
f 11/4/2 5/9/2 6/5/2
f 10/7/3 3/1/3 4/3/3
f 5/9/4 1/11/4 2/10/4
f 1/11/5 10/7/5 12/8/5
f 7/12/6 11/4/6 9/6/6
f 10/7/7 1/11/7 3/1/7
f 1/11/7 5/9/7 7/12/7
f 5/9/7 11/4/7 7/12/7
f 9/16/8 6/15/8 8/14/8
f 6/15/8 2/17/8 4/13/8
f 2/17/8 12/18/8 4/13/8
