<svg id="Capa_1" enable-background="new 0 0 513.001 513.001" height="512" viewBox="0 0 513.001 513.001" width="512" xmlns="http://www.w3.org/2000/svg"><path d="m509.873 486.891c-3.835-10.743-12.815-35.9-12.816-60.627l.005-7.161c.079-74.034.153-157.539-76.923-241.392l2.968-2.968c2.814-2.813 4.394-6.628 4.394-10.607 0-3.978-1.58-7.794-4.394-10.607l-21.464-21.463 32.218-32.217 21.106 21.106c2.845 2.845 6.674 4.394 10.606 4.394 1.129 0 2.266-.127 3.391-.388 5.044-1.17 9.128-4.86 10.803-9.759l32.427-94.853c1.852-5.415.46-11.412-3.587-15.459-4.047-4.047-10.043-5.438-15.459-3.587l-94.854 32.427c-4.899 1.675-8.589 5.759-9.759 10.803-1.171 5.044.343 10.335 4.005 13.997l20.107 20.107-32.217 32.217-20.964-20.963c-5.857-5.858-15.355-5.857-21.213 0l-2.967 2.967c-83.851-77.076-167.344-77-241.389-76.922l-7.164.005c-24.727-.002-49.884-8.982-60.627-12.816-1.839-.657-3.291-1.175-4.463-1.552-11.608-3.728-17.332 3.606-18.812 5.944-1.792 2.833-2.524 6.053-2.279 9.2h-.002l30.201 370.177-26.357 26.357c-5.858 5.858-5.858 15.355 0 21.213l26.213 26.213-26.213 26.214c-5.858 5.858-5.858 15.355 0 21.213 2.929 2.929 6.767 4.393 10.606 4.393s7.678-1.465 10.606-4.393l26.214-26.213 26.213 26.213c2.929 2.928 6.767 4.393 10.606 4.393 3.823 0 7.646-1.453 10.572-4.359l26.479-26.307 370.573 30.614c.381.031.758.044 1.134.047.019.004.05.01.05.01s.023-.003.044-.006c.008 0 .017.001.024.001v-.004c.636-.093 5.642-.859 7.964-2.328 2.337-1.479 9.673-7.206 5.943-18.811-.374-1.171-.892-2.624-1.549-4.463zm-35.96-447.307-14.749 43.144-28.394-28.395zm-82.627 124.553-42.427 42.427-42.426-42.427 42.426-42.426zm-77.229-50.05-29.042 29.043c-56.13-51.925-109.913-69.811-157.704-85.701-11.515-3.829-22.571-7.505-33.149-11.494 71.365-.074 145.033-.077 219.895 68.152zm-196.211-28.19c50.026 16.633 101.756 33.832 156.769 88.846l20.964 20.964-179.512 179.511h-56.168l-26.588-325.879c26.073 17.111 54.702 26.639 84.535 36.558zm-81.633 337.961 18.64-18.64h31.214l-34.247 34.246zm52.461 52.461-15.641-15.641 34.467-34.467v31.405zm48.826-23.614v-56.495l179.291-179.29 21.459 21.46c.002.001.002.002.003.003 55.014 55.014 72.214 106.743 88.847 156.769 9.915 29.819 19.438 58.434 36.533 84.497zm329.562-33.868c-3.989-10.581-7.665-21.634-11.494-33.151-15.89-47.79-33.776-101.573-85.7-157.704l29.042-29.042c68.23 74.865 68.228 148.537 68.152 219.897z"/></svg>