<svg height="512" viewBox="0 0 128 128" width="512" xmlns="http://www.w3.org/2000/svg"><path d="m111.33 17.019a1.749 1.749 0 0 0 -1.948-.362l-35.981 16a1.753 1.753 0 0 0 -1.039 1.634l.155 7.783-11.072 11.072a1.751 1.751 0 0 0 0 2.475l.758.758-44.489 45.774a5.5 5.5 0 0 0 7.783 7.785l45.776-44.49 1.455 1.452a1.748 1.748 0 0 0 2.474 0l11.072-11.068 7.784.154h.035a1.748 1.748 0 0 0 1.6-1.039l16-35.98a1.746 1.746 0 0 0 -.363-1.948zm-88.272 90.409a2 2 0 0 1 -2.834-2.835l44.454-45.739 4.12 4.119zm50.907-44.237-8.808-8.807 7.456-7.456.138 6.955a1.752 1.752 0 0 0 1.715 1.717l6.955.138zm19-10.727-14.322-.284 11.857-11.854a1.75 1.75 0 1 0 -2.475-2.474l-11.856 11.853-.284-14.321 30.759-13.679z"/></svg>